<svg width="131" height="44" viewBox="0 0 131 44" fill="none" xmlns="http://www.w3.org/2000/svg">
<path d="M0 22C0 9.84974 9.84974 0 22 0H106C119.807 0 131 11.1929 131 25V44H22C9.84974 44 0 34.1503 0 22V22Z" fill="#0D9BD9"/>
<path d="M37.539 16.558L33.561 30H31.377L28.166 19.587L25.124 30H22.94L18.845 16.558H20.756L23.98 27.426H24.214L27.399 16.558H28.972L32.287 27.4H32.534L35.615 16.558H37.539Z" fill="white"/>
<path d="M41.3382 23.747C41.3382 24.6483 41.4856 25.4673 41.7802 26.204C42.0749 26.9407 42.5299 27.53 43.1452 27.972C43.7606 28.414 44.5406 28.635 45.4852 28.635C46.3952 28.635 47.1796 28.4227 47.8382 27.998C48.4969 27.5647 48.9086 26.9537 49.0732 26.165H51.0232C50.8586 27.0663 50.4989 27.8203 49.9442 28.427C49.3982 29.0337 48.7352 29.493 47.9552 29.805C47.1839 30.1083 46.3692 30.26 45.5112 30.26C44.2806 30.26 43.1929 29.9913 42.2482 29.454C41.3122 28.908 40.5799 28.1237 40.0512 27.101C39.5312 26.0783 39.2712 24.8477 39.2712 23.409C39.2712 21.979 39.5096 20.731 39.9862 19.665C40.4629 18.5903 41.1519 17.7627 42.0532 17.182C42.9632 16.5927 44.0596 16.298 45.3422 16.298C46.5816 16.298 47.6302 16.5667 48.4882 17.104C49.3462 17.6327 50.0006 18.391 50.4512 19.379C50.9019 20.367 51.1272 21.5457 51.1272 22.915V23.747H41.3382ZM41.3512 22.304H49.1512C49.1512 21.472 49.0126 20.7223 48.7352 20.055C48.4579 19.3877 48.0376 18.859 47.4742 18.469C46.9109 18.079 46.1959 17.884 45.3292 17.884C44.4106 17.884 43.6566 18.105 43.0672 18.547C42.4866 18.9803 42.0532 19.535 41.7672 20.211C41.4812 20.887 41.3426 21.5847 41.3512 22.304Z" fill="white"/>
<path d="M57.7318 30.143C57.0905 30.143 56.5618 30.052 56.1458 29.87C55.7385 29.6793 55.4178 29.4193 55.1838 29.09C54.9585 28.7607 54.8025 28.3837 54.7158 27.959C54.6292 27.5343 54.5858 27.088 54.5858 26.62V10.682H56.5878V26.451C56.5878 27.1877 56.7265 27.7293 57.0038 28.076C57.2812 28.414 57.6452 28.596 58.0958 28.622L58.8498 28.635V29.961C58.6592 30.0217 58.4642 30.065 58.2648 30.091C58.0655 30.1257 57.8878 30.143 57.7318 30.143Z" fill="white"/>
<path d="M64.892 30.143C64.2507 30.143 63.722 30.052 63.306 29.87C62.8987 29.6793 62.578 29.4193 62.344 29.09C62.1187 28.7607 61.9627 28.3837 61.876 27.959C61.7893 27.5343 61.746 27.088 61.746 26.62V10.682H63.748V26.451C63.748 27.1877 63.8867 27.7293 64.164 28.076C64.4413 28.414 64.8053 28.596 65.256 28.622L66.01 28.635V29.961C65.8193 30.0217 65.6243 30.065 65.425 30.091C65.2257 30.1257 65.048 30.143 64.892 30.143Z" fill="white"/>
<path d="M70.925 34.29C70.0063 34.29 69.3563 34.212 68.975 34.056C68.6023 33.9087 68.416 33.835 68.416 33.835V31.417L69.742 31.469C70.3227 31.5037 70.7907 31.4733 71.146 31.378C71.5013 31.2913 71.77 31.1743 71.952 31.027C72.1427 30.8797 72.277 30.7237 72.355 30.559C72.433 30.403 72.4893 30.2773 72.524 30.182L72.771 29.441L67.545 16.558H71.302L74.526 25.32L77.789 16.558H81.494L76.047 30.078C75.579 31.222 75.085 32.0973 74.565 32.704C74.045 33.3107 73.4817 33.7267 72.875 33.952C72.277 34.1773 71.627 34.29 70.925 34.29Z" fill="white"/>
<path d="M85.993 24.15C85.9844 24.8347 86.0927 25.4327 86.318 25.944C86.5433 26.4467 86.8683 26.8367 87.293 27.114C87.7263 27.3827 88.2464 27.517 88.853 27.517C89.503 27.517 90.0707 27.3783 90.556 27.101C91.05 26.8237 91.3923 26.3687 91.583 25.736H95.002C94.8547 26.6893 94.4734 27.504 93.858 28.18C93.2514 28.856 92.5147 29.3717 91.648 29.727C90.7814 30.0823 89.88 30.26 88.944 30.26C87.618 30.26 86.448 29.9827 85.434 29.428C84.4287 28.8647 83.6443 28.0717 83.081 27.049C82.5177 26.0263 82.236 24.8217 82.236 23.435C82.236 22.0917 82.4917 20.8827 83.003 19.808C83.5144 18.7247 84.2554 17.871 85.226 17.247C86.2054 16.6143 87.3797 16.298 88.749 16.298C90.1183 16.298 91.2667 16.5883 92.194 17.169C93.13 17.741 93.832 18.5427 94.3 19.574C94.7767 20.5967 95.015 21.7797 95.015 23.123V24.15H85.993ZM85.98 21.888H91.466C91.466 21.3507 91.3663 20.8567 91.167 20.406C90.9677 19.9553 90.6644 19.6 90.257 19.34C89.8584 19.08 89.3557 18.95 88.749 18.95C88.1597 18.95 87.657 19.093 87.241 19.379C86.8337 19.6563 86.5217 20.0203 86.305 20.471C86.0883 20.9217 85.98 21.394 85.98 21.888Z" fill="white"/>
<path d="M102.917 30.26C101.981 30.26 101.079 30.1083 100.213 29.805C99.3459 29.493 98.6136 29.0077 98.0156 28.349C97.4176 27.6817 97.0362 26.8193 96.8716 25.762H100.161C100.273 26.2387 100.477 26.6157 100.772 26.893C101.075 27.1703 101.417 27.3697 101.799 27.491C102.18 27.6037 102.544 27.66 102.891 27.66C103.619 27.66 104.204 27.5473 104.646 27.322C105.096 27.088 105.322 26.7327 105.322 26.256C105.322 25.892 105.187 25.6017 104.919 25.385C104.659 25.1683 104.225 25.0037 103.619 24.891L101.253 24.397C100.065 24.1457 99.1119 23.721 98.3926 23.123C97.6732 22.5163 97.3049 21.6583 97.2876 20.549C97.2876 19.743 97.4999 19.0193 97.9246 18.378C98.3579 17.7367 98.9949 17.2297 99.8356 16.857C100.676 16.4843 101.708 16.298 102.93 16.298C104.585 16.298 105.907 16.662 106.895 17.39C107.891 18.118 108.398 19.145 108.416 20.471H105.244C105.148 19.951 104.888 19.5523 104.464 19.275C104.048 18.989 103.523 18.846 102.891 18.846C102.232 18.846 101.69 18.963 101.266 19.197C100.841 19.431 100.629 19.7863 100.629 20.263C100.629 20.6183 100.802 20.9 101.149 21.108C101.495 21.3073 102.033 21.4807 102.761 21.628L104.945 22.122C105.699 22.304 106.31 22.5553 106.778 22.876C107.254 23.188 107.623 23.5303 107.883 23.903C108.143 24.2757 108.32 24.6527 108.416 25.034C108.52 25.4067 108.572 25.7447 108.572 26.048C108.572 26.9407 108.333 27.7033 107.857 28.336C107.38 28.96 106.717 29.4367 105.868 29.766C105.018 30.0953 104.035 30.26 102.917 30.26Z" fill="white"/>
<circle cx="113.5" cy="27.5" r="2.5" fill="white"/>
</svg>
